<svg xmlns="http://www.w3.org/2000/svg" width="24" height="24" viewBox="0 0 24 24" role="img" aria-label="QA, validation and data reliability background" font-family="-apple-system,BlinkMacSystemFont,'Segoe UI','Noto Sans',Helvetica,Arial,sans-serif"><title>QA, validation and data reliability background</title><ellipse cx="9" cy="4.2" rx="7" ry="2.6" fill="#6E63C6"/><rect x="2" y="4.2" width="14" height="10.2" fill="#6E63C6"/><ellipse cx="9" cy="14.4" rx="7" ry="2.6" fill="#6E63C6"/><path d="M2 9.3 A7 2.4 0 0 0 16 9.3" fill="none" stroke="#FFFFFF" stroke-opacity=".55" stroke-width="1"/><circle cx="17.5" cy="16.5" r="6" fill="#F8C9B6"/><path d="M14.6 16.6 l2 2 3.4-3.6" fill="none" stroke="#EC9A7E" stroke-width="2" stroke-linecap="round" stroke-linejoin="round"/><g fill="#EC9A7E" shape-rendering="crispEdges"><rect x="20.10" y="-0.50" width="1.3" height="1.3"/><rect x="20.10" y="0.80" width="1.3" height="1.3"/><rect x="17.50" y="2.10" width="1.3" height="1.3"/><rect x="18.80" y="2.10" width="1.3" height="1.3"/><rect x="21.40" y="2.10" width="1.3" height="1.3"/><rect x="22.70" y="2.10" width="1.3" height="1.3"/><rect x="20.10" y="3.40" width="1.3" height="1.3"/><rect x="20.10" y="4.70" width="1.3" height="1.3"/></g><rect x="20.10" y="2.10" width="1.3" height="1.3" fill="#F8C9B6" shape-rendering="crispEdges"/></svg>
